<svg xmlns="http://www.w3.org/2000/svg" viewBox="0 0 160 116.02"><defs><style>.cls-1{fill:#fff;}.cls-2{isolation:isolate;}</style></defs><g id="Layer_2" data-name="Layer 2"><g id="Layer_1-2" data-name="Layer 1"><g id="Group_4" data-name="Group 4"><g id="Subtraction_2" data-name="Subtraction 2"><path class="cls-1" d="M57.8,116A57.49,57.49,0,0,1,17,99,57.89,57.89,0,1,1,111,35.44a57,57,0,0,1,2,5.43h-3.49a54.68,54.68,0,1,0,0,34.29H113c-.57,1.84-1.24,3.66-2,5.43a58.09,58.09,0,0,1-30.75,30.87A57.34,57.34,0,0,1,57.8,116Z"/></g><g id="Icon_awesome-play" data-name="Icon awesome-play"><path class="cls-1" d="M69.56,56.26,54.63,47.44a2,2,0,0,0-2.78.69,2.09,2.09,0,0,0-.29,1.06V66.84a2,2,0,0,0,2,2,2,2,0,0,0,1-.28l14.93-8.82a2,2,0,0,0,0-3.5Z"/></g><g id="Play_Video" data-name="Play Video" class="cls-2"><g class="cls-2"><path class="cls-1" d="M100.22,52.37a2.64,2.64,0,0,1,2.72,3,2.63,2.63,0,0,1-2.72,2.93H97.37V62h-.94V52.37Zm-2.85.92v4h2.78a2,2,0,0,0,.07-4Z"/><path class="cls-1" d="M105.5,62h-.93V51.93h.93Z"/><path class="cls-1" d="M114.07,62h-.94V60.9a2.89,2.89,0,0,1-2.46,1.26,3.28,3.28,0,0,1-3.35-3.44,3.23,3.23,0,0,1,3.35-3.38,2.84,2.84,0,0,1,2.46,1.21V55.47h.94Zm-3.4-.8a2.34,2.34,0,0,0,2.46-2.5,2.4,2.4,0,0,0-2.46-2.45,2.33,2.33,0,0,0-2.41,2.45A2.39,2.39,0,0,0,110.67,61.22Z"/><path class="cls-1" d="M116.92,65.18,118.23,62l-2.69-6.53h1l2.21,5.33L121,55.47h1l-4.06,9.71Z"/><path class="cls-1" d="M129.06,60.5l2.43-8.13h.95L129.55,62h-1l-2.9-9.65h1Z"/><path class="cls-1" d="M134.53,52.37a.67.67,0,1,1-.71.67A.68.68,0,0,1,134.53,52.37ZM135,62h-.92V55.47H135Z"/><path class="cls-1" d="M143.55,62h-.93V60.9a2.9,2.9,0,0,1-2.47,1.26,3.28,3.28,0,0,1-3.35-3.44,3.24,3.24,0,0,1,3.35-3.38,2.86,2.86,0,0,1,2.47,1.21V51.93h.93Zm-3.4-.8a2.35,2.35,0,0,0,2.47-2.5,2.4,2.4,0,0,0-2.47-2.45,2.33,2.33,0,0,0-2.41,2.45A2.39,2.39,0,0,0,140.15,61.22Z"/><path class="cls-1" d="M145.37,58.72a3.2,3.2,0,0,1,3.31-3.38,3.12,3.12,0,0,1,3.2,3.38c0,.16,0,.31,0,.44h-5.55a2.39,2.39,0,0,0,4.4.94l.94.21a3.18,3.18,0,0,1-3,1.85A3.24,3.24,0,0,1,145.37,58.72Zm5.56-.43a2.19,2.19,0,0,0-2.25-2,2.28,2.28,0,0,0-2.36,2Z"/><path class="cls-1" d="M153.17,58.72a3.42,3.42,0,0,1,6.83,0,3.42,3.42,0,1,1-6.83,0Zm5.91,0a2.5,2.5,0,0,0-5,0,2.5,2.5,0,1,0,5,0Z"/></g></g></g></g></g></svg>