<svg xmlns="http://www.w3.org/2000/svg" width="85" height="85" viewBox="0 0 85 85">
  <g id="Group_179" data-name="Group 179" transform="translate(-562 -1399)">
    <rect id="Rectangle_324" data-name="Rectangle 324" width="85" height="85" rx="22" transform="translate(562 1399)" fill="#e9f6ee" opacity="0.08"/>
    <g id="Social_Media" data-name="Social Media" transform="translate(582 1418)">
      <path id="Path_21" data-name="Path 21" d="M22.729,27.421a.789.789,0,0,1-.705-.435c-1.557-3.114-3.4-4.327-6.589-4.327H5.86a2.366,2.366,0,0,1-2.366-2.366V11.366A2.366,2.366,0,0,1,5.86,9H21.151a2.366,2.366,0,0,1,2.366,2.366V26.632a.789.789,0,0,1-.789.789ZM5.86,10.577a.789.789,0,0,0-.789.789v8.926a.789.789,0,0,0,.789.789h9.575a7.753,7.753,0,0,1,6.505,2.839V11.366a.789.789,0,0,0-.789-.789ZM29.224,38.267a.789.789,0,0,1-.789-.789V22.212A2.366,2.366,0,0,1,30.8,19.846H46.093a2.366,2.366,0,0,1,2.366,2.366v8.926A2.366,2.366,0,0,1,46.093,33.5H36.518c-3.185,0-5.032,1.213-6.589,4.327A.789.789,0,0,1,29.224,38.267ZM30.8,21.424a.789.789,0,0,0-.789.789V34.767a7.756,7.756,0,0,1,6.505-2.839h9.575a.789.789,0,0,0,.789-.789V22.212a.789.789,0,0,0-.789-.789Z" transform="translate(-3.494 -3.463)" fill="#00ff65"/>
      <path id="Path_22" data-name="Path 22" d="M18.147,16.036H8.8a.789.789,0,0,1,0-1.577h9.344a.789.789,0,0,1,0,1.577Zm-2.773,3.255H8.8a.789.789,0,1,1,0-1.577h6.571a.789.789,0,0,1,0,1.577Zm7.355,29.281a.789.789,0,0,1-.705-.436c-1.557-3.113-3.4-4.326-6.589-4.326H5.86a2.366,2.366,0,0,1-2.366-2.366V32.517A2.366,2.366,0,0,1,5.86,30.151H21.151a2.366,2.366,0,0,1,2.366,2.366V47.784a.789.789,0,0,1-.607.768A.842.842,0,0,1,22.729,48.572ZM5.86,31.728a.789.789,0,0,0-.789.789v8.927a.789.789,0,0,0,.789.789h9.575a7.751,7.751,0,0,1,6.505,2.839V32.517a.789.789,0,0,0-.789-.789Z" transform="translate(-3.494 -4.617)" fill="#00ff65"/>
      <path id="Path_23" data-name="Path 23" d="M19.374,46.041H10.089a.789.789,0,0,1-.789-.789V38.561a.789.789,0,0,1,.789-.789h9.283a.789.789,0,0,1,.789.789v6.692a.789.789,0,0,1-.786.789ZM10.88,44.464h7.706V39.349H10.877Z" transform="translate(-4.721 -9.543)" fill="#00ff65"/>
      <path id="Path_24" data-name="Path 24" d="M10.377,36.015a.789.789,0,0,1-.477-1.42l2.458-1.861a.789.789,0,0,1,1,.039L14.88,34.13l4.189-2.189a.789.789,0,1,1,.731,1.4l-4.672,2.445a.789.789,0,0,1-.89-.11l-1.446-1.287-1.94,1.472a.789.789,0,0,1-.476.157Zm27.233-7.161a.789.789,0,0,1-.789-.789V22.319A.789.789,0,0,1,38,21.632l5.064,2.874a.789.789,0,0,1,0,1.372L38,28.751A.789.789,0,0,1,37.609,28.854Zm.789-5.181v3.038l2.677-1.519ZM13.856,29.1a.789.789,0,0,1-.789-.789V20.388a.789.789,0,1,1,1.577,0v7.918A.789.789,0,0,1,13.856,29.1ZM37.911,49.333H16.222a3.155,3.155,0,0,1-3.155-3.155v-5.8a.789.789,0,0,1,1.577,0v5.8a1.577,1.577,0,0,0,1.577,1.577H37.911a1.577,1.577,0,0,0,1.577-1.577V32a.789.789,0,1,1,1.577,0v14.18A3.155,3.155,0,0,1,37.911,49.333Zm2.366-29.395a.789.789,0,0,1-.789-.789V5.135a1.577,1.577,0,0,0-1.577-1.577H16.222a1.577,1.577,0,0,0-1.577,1.577V8.305a.789.789,0,1,1-1.577,0V5.135A3.155,3.155,0,0,1,16.222,1.98H37.911a3.155,3.155,0,0,1,3.155,3.155V19.15A.789.789,0,0,1,40.277,19.939Z" transform="translate(-4.781 -1.98)" fill="#00ff65"/>
      <path id="Path_25" data-name="Path 25" d="M33.233,6.214H28.6a.789.789,0,1,1,0-1.577h4.632a.789.789,0,0,1,0,1.577Zm2.354-.006a.8.8,0,0,1-.308-.055.7.7,0,0,1-.252-.174.789.789,0,0,1,0-1.112.816.816,0,0,1,1.112,0,.8.8,0,0,1,.174.252.846.846,0,0,1,.055.308.764.764,0,0,1-.229.552.7.7,0,0,1-.252.174.789.789,0,0,1-.3.055Z" transform="translate(-8.633 -2.541)" fill="#00ff65"/>
    </g>
  </g>
</svg>
