<svg xmlns="http://www.w3.org/2000/svg" width="85" height="85" viewBox="0 0 85 85">
  <g id="Group_181" data-name="Group 181" transform="translate(-1432 -1399)">
    <rect id="Rectangle_326" data-name="Rectangle 326" width="85" height="85" rx="22" transform="translate(1432 1399)" fill="#e8dcff" opacity="0.08"/>
    <g id="Group_7" data-name="Group 7" transform="translate(1451 1418)">
      <path id="Path_26" data-name="Path 26" d="M24.067,47.527H9.837A.837.837,0,0,1,9,46.69V28.275a.837.837,0,0,1,.837-.837H21.556V17.393H9.837A.837.837,0,0,1,9,16.556V4.837A.837.837,0,0,1,9.837,4H33.274a.837.837,0,0,1,.594.243l6.7,6.7a.837.837,0,0,1,.243.594V33.3a.837.837,0,0,1-.837.837H24.9V46.69A.837.837,0,0,1,24.067,47.527ZM10.674,45.853H23.23V33.3a.837.837,0,0,1,.837-.837H39.134V11.877l-6.2-6.2H10.674V15.719H22.393a.837.837,0,0,1,.837.837V28.275a.837.837,0,0,1-.837.837H10.674Z" transform="translate(-4.815 -4)" fill="#ac3eff"/>
      <path id="Path_27" data-name="Path 27" d="M50.038,51.69H23.252a.837.837,0,0,1-.837-.837V34.112a.837.837,0,0,1,.837-.837H50.038a.837.837,0,0,1,.837.837V50.853A.837.837,0,0,1,50.038,51.69ZM24.089,50.016H49.2V34.949H24.089ZM21.578,29.926H4.837A.837.837,0,0,1,4,29.089V17.371a.837.837,0,0,1,.837-.837H21.578a.837.837,0,0,1,.837.837V29.089A.837.837,0,0,1,21.578,29.926Zm-15.9-1.674H20.741V18.208H5.674Zm40.949,4.185h0a.837.837,0,0,1-.661-.343l-2.444-3.348a.837.837,0,0,1-.176-.494V10.674A1.674,1.674,0,0,1,45.016,9h3.348a1.674,1.674,0,0,1,1.674,1.674V28.252a.837.837,0,0,1-.176.511l-2.578,3.348A.837.837,0,0,1,46.623,32.437Zm-1.607-4.461L46.639,30.2l1.724-2.235V10.674H45.016Zm4.185.276Z" transform="translate(-4 -4.815)" fill="#ac3eff"/>
      <path id="Path_28" data-name="Path 28" d="M49.016,9.859H45.667a.837.837,0,0,1-.837-.837V6.511a2.511,2.511,0,1,1,5.022,0V9.022A.837.837,0,0,1,49.016,9.859ZM46.5,8.185h1.674V6.511a.837.837,0,0,0-1.674,0Zm-35.993,15.9a2.511,2.511,0,1,1,2.511-2.511A2.511,2.511,0,0,1,10.511,24.089Zm0-3.348a.837.837,0,1,0,.837.837A.837.837,0,0,0,10.511,20.741Zm8.371,2.511H15.533a.837.837,0,1,1,0-1.674h3.348a.837.837,0,0,1,0,1.674Zm0,2.511H15.533a.837.837,0,1,1,0-1.674h3.348a.837.837,0,1,1,0,1.674ZM16.371,14.045A3.348,3.348,0,1,1,19.719,10.7,3.348,3.348,0,0,1,16.371,14.045Zm0-5.022A1.674,1.674,0,1,0,18.045,10.7,1.674,1.674,0,0,0,16.371,9.022Zm13.393.837H22.23a.837.837,0,0,1,0-1.674h7.533a.837.837,0,0,1,0,1.674Zm-3.348,3.348H22.23a.837.837,0,0,1,0-1.674h4.185a.837.837,0,1,1,0,1.674Zm13.393-.837h-6.7a.837.837,0,0,1-.837-.837v-6.7a.842.842,0,0,1,1.431-.594l6.7,6.7a.842.842,0,0,1-.594,1.431ZM33.949,10.7h3.842L33.949,6.854ZM37.3,40.83a.837.837,0,0,1-.377-.092l-13.393-6.7a.837.837,0,0,1,.753-1.49l13.016,6.5,13.016-6.5a.837.837,0,1,1,.753,1.49l-13.393,6.7A.837.837,0,0,1,37.3,40.83Zm-7.952,6.7a2.93,2.93,0,1,1,2.93-2.93,2.93,2.93,0,0,1-2.93,2.93Zm0-4.185A1.256,1.256,0,1,0,30.6,44.6,1.256,1.256,0,0,0,29.345,43.341Zm12.974.837H34.786a.837.837,0,0,1,0-1.674h7.533a.837.837,0,0,1,0,1.674Zm-3.348,3.348H34.786a.837.837,0,0,1,0-1.674h4.185a.837.837,0,0,1,0,1.674Z" transform="translate(-4.652 -4)" fill="#ac3eff"/>
    </g>
  </g>
</svg>
