<svg xmlns="http://www.w3.org/2000/svg" width="85" height="85" viewBox="0 0 85 85">
  <g id="Group_180" data-name="Group 180" transform="translate(-983 -1399)">
    <rect id="Rectangle_325" data-name="Rectangle 325" width="85" height="85" rx="22" transform="translate(983 1399)" fill="#fff6dd" opacity="0.08"/>
    <path id="Layer_5" data-name="Layer 5" d="M49.693,43.48H48.452V18.651a1.241,1.241,0,0,0-1.241-1.241H36.918L29.643,5.59a.857.857,0,0,0-.137-.161,1.241,1.241,0,0,0-1.837,0,.857.857,0,0,0-.137.161L20.258,17.409H9.966a1.241,1.241,0,0,0-1.241,1.241V43.48H7.483A2.483,2.483,0,0,0,5,45.963V47.2a4.966,4.966,0,0,0,4.966,4.966H47.21A4.966,4.966,0,0,0,52.176,47.2V45.963A2.483,2.483,0,0,0,49.693,43.48ZM21.139,32.307h14.9V34.79h-14.9ZM23.2,29.824l-3.153-7.35,7.3-11.856v9.5a3.724,3.724,0,1,0,2.483,0v-9.5l7.3,11.856-3.153,7.35Zm5.388-7.449a1.241,1.241,0,1,1-1.241,1.241A1.241,1.241,0,0,1,28.588,22.375ZM11.207,19.892h7.523L17.6,21.73a1.241,1.241,0,0,0-.087,1.13l2.98,6.965h-.6a1.241,1.241,0,0,0-1.241,1.241v4.966A1.241,1.241,0,0,0,19.9,37.273H37.279a1.241,1.241,0,0,0,1.241-1.241V31.066a1.241,1.241,0,0,0-1.241-1.241h-.6l2.98-6.965a1.241,1.241,0,0,0-.087-1.13l-1.13-1.837h7.523V39.756H11.207Zm0,22.347H45.969V43.48H36.037a1.241,1.241,0,0,0-1.1.683l-.906,1.8H23.15l-.906-1.8a1.241,1.241,0,0,0-1.1-.683H11.207ZM49.693,47.2a2.483,2.483,0,0,1-2.483,2.483H9.966A2.483,2.483,0,0,1,7.483,47.2V45.963H20.37l.906,1.8a1.241,1.241,0,0,0,1.1.683H34.8a1.241,1.241,0,0,0,1.1-.683l.906-1.8H49.693Z" transform="translate(996.912 1412.977)" fill="#ffca45"/>
  </g>
</svg>
