<svg xmlns="http://www.w3.org/2000/svg" width="167.309" height="45.849" viewBox="0 0 167.309 45.849">
  <g id="Group_176" data-name="Group 176" transform="translate(-140 -47)">
    <g id="Group_1" data-name="Group 1" transform="translate(140 47)">
      <path id="Path_1" data-name="Path 1" d="M788.5,597.762c0-7.461,5.175-14.722,4.212-11.794a15.69,15.69,0,0,0,.642,10.149c.241-6.7,7.381-10.269,5.175-16.988a6.275,6.275,0,0,1,3.731,3.751c2.527-6.539-4.774-9.226-4.774-9.226,8.785,0,15.9,6.739,15.9,12.435,0,4.212-2.593,8.318.151,8.318,2.5,0,2.818-2.073,2.818-3.938a5.5,5.5,0,0,0-.481-2.655s5.175,5.3,5.175,12.455c0,6.34-4.837,12.549-12.962,13.89,1.31-4.419,5.451-5.27,5.451-10.555a8.767,8.767,0,1,0-17.531,0c0,5.251,4.087,6.126,5.425,10.472C793.329,612.324,788.5,604.361,788.5,597.762Z" transform="translate(-788.503 -573.653)" fill="#fff"/>
      <path id="Path_2" data-name="Path 2" d="M1007.071,885.857a6.587,6.587,0,0,0-2.2-4.821,6.378,6.378,0,0,0-4.87-1.612,7.36,7.36,0,0,1,4.319,2.184,6.4,6.4,0,0,1,1.735,4.284,5.832,5.832,0,0,1-.339,2.294,8.05,8.05,0,0,1-1.241,2.045c-.255.332-.528.664-.782,1.014-.123.181-.251.356-.369.541s-.236.369-.333.568a5.974,5.974,0,0,0-.688,2.5,7.416,7.416,0,0,1,1.11-2.233,19.978,19.978,0,0,1,1.663-1.872,7.544,7.544,0,0,0,1.531-2.2,4.326,4.326,0,0,0,.232-.654,4.589,4.589,0,0,0,.15-.675,4.086,4.086,0,0,0,.072-.682l.019-.341C1007.087,886.082,1007.074,885.97,1007.071,885.857Z" transform="translate(-983.724 -855.859)" fill="#fff"/>
      <path id="Path_3" data-name="Path 3" d="M960.113,1122.29a3.07,3.07,0,0,0,3.07,3.07h0a3.07,3.07,0,0,0,3.07-3.07v-.6h-6.139Z" transform="translate(-946.906 -1079.51)" fill="#fff"/>
    </g>
    <g id="Group_2" data-name="Group 2" transform="translate(185.309 57)">
      <path id="Path_4" data-name="Path 4" d="M542.523,1235.172v-2.238h-7.1v-11.391h-2.48v13.628h9.583Z" transform="translate(-532.94 -1221.45)" fill="#fff"/>
      <path id="Path_5" data-name="Path 5" d="M742.652,1229.405h2.778v1.13a5.585,5.585,0,0,1-1.6,1.368,3.759,3.759,0,0,1-1.818.466,3.46,3.46,0,0,1-1.571-.361h0a4.1,4.1,0,0,1-1.273-.988h0a4.567,4.567,0,0,1-.849-1.467,5.293,5.293,0,0,1-.305-1.816,5.6,5.6,0,0,1,.279-1.766,4.669,4.669,0,0,1,.787-1.477,3.939,3.939,0,0,1,1.217-1.013,3.252,3.252,0,0,1,1.566-.377,3.771,3.771,0,0,1,1.942.514h0a3.58,3.58,0,0,1,1.387,1.541l.1.206,1.925-1.388-.075-.149a5.356,5.356,0,0,0-1.992-2.176,6.535,6.535,0,0,0-5.8-.272l-.089.041.089-.041a6.334,6.334,0,0,0-2.029,1.491,7.042,7.042,0,0,0-1.343,2.185,7.22,7.22,0,0,0,0,5.223,7.368,7.368,0,0,0,1.341,2.221h0a6.65,6.65,0,0,0,2.016,1.556h0a5.483,5.483,0,0,0,2.5.589,5.007,5.007,0,0,0,2.109-.451,5.59,5.59,0,0,0,1.48-1.008v1.366h2.144v-7.085h-4.922Z" transform="translate(-709.039 -1220.829)" fill="#fff"/>
      <path id="Path_6" data-name="Path 6" d="M895.134,1221.543v5.537h-6.282v-5.537h-2.48v13.628h2.48v-5.835h6.282v5.835h2.5v-13.628h-2.5Z" transform="translate(-840.212 -1221.45)" fill="#fff"/>
      <path id="Path_7" data-name="Path 7" d="M1037.417,1223.585v-2.042h-11.3v2.237h4.418v11.391h2.48v-11.391h4.4Z" transform="translate(-961.707 -1221.45)" fill="#fff"/>
      <path id="Path_8" data-name="Path 8" d="M1247.271,1234.724a5,5,0,0,0,1.852-1.484,6.123,6.123,0,0,0,1.04-2.176,10.226,10.226,0,0,0,.323-2.613v-6.907h-2.5v6.907a8.327,8.327,0,0,1-.173,1.7,4.32,4.32,0,0,1-.57,1.445,3.075,3.075,0,0,1-1.044,1.009,3.156,3.156,0,0,1-1.634.382,3.223,3.223,0,0,1-1.627-.375,2.967,2.967,0,0,1-1.051-1,4.312,4.312,0,0,1-.57-1.445,8.376,8.376,0,0,1-.173-1.722v-6.907h-2.48v6.907a10.378,10.378,0,0,0,.3,2.527,6.239,6.239,0,0,0,1,2.184,5.015,5.015,0,0,0,1.832,1.532,6.088,6.088,0,0,0,2.763.571A6.216,6.216,0,0,0,1247.271,1234.724Z" transform="translate(-1146.496 -1221.45)" fill="#fff"/>
      <path id="Path_9" data-name="Path 9" d="M1392.6,1235.171v-4.6h3.384a3.836,3.836,0,0,0,1.718-.384,4.145,4.145,0,0,0,1.32-1.017,4.709,4.709,0,0,0,.846-1.439,4.759,4.759,0,0,0,.3-1.681,4.426,4.426,0,0,0-.321-1.648,4.82,4.82,0,0,0-.884-1.438,4.428,4.428,0,0,0-1.355-1.024,3.877,3.877,0,0,0-1.737-.393h-5.751v13.628h2.48Zm4.469-10.774h0a2.172,2.172,0,0,1,.427.711,2.654,2.654,0,0,1,.156.938,2.917,2.917,0,0,1-.139.926,2.413,2.413,0,0,1-.379.725,1.668,1.668,0,0,1-.559.468,1.555,1.555,0,0,1-.722.165H1392.6v-4.549h3.141a1.671,1.671,0,0,1,.71.159h0A1.947,1.947,0,0,1,1397.068,1224.4Z" transform="translate(-1278.168 -1221.45)" fill="#fff"/>
      <path id="Path_10" data-name="Path 10" d="M765.41,1376.877l-2.275-4.081h-1.194v6.994h1.229v-4.554l1.893,3.363h.7l1.884-3.361v4.551h1.229V1372.8h-1.185Z" transform="translate(-732.032 -1352.949)" fill="#fff"/>
      <path id="Path_11" data-name="Path 11" d="M889.479,1378.655v-1.887h3.1v-1.089h-3.1v-1.747h3.562V1372.8h-4.79v6.994h4.874v-1.136h-3.645Z" transform="translate(-841.845 -1352.949)" fill="#fff"/>
      <path id="Path_12" data-name="Path 12" d="M1000.778,1373.828a3.032,3.032,0,0,0-1.067-.756,3.665,3.665,0,0,0-1.468-.276h-2.483v6.994h2.483a3.7,3.7,0,0,0,1.389-.251,3.075,3.075,0,0,0,1.077-.715,3.111,3.111,0,0,0,.685-1.11,4.131,4.131,0,0,0,.235-1.43,4.211,4.211,0,0,0-.21-1.34A3.14,3.14,0,0,0,1000.778,1373.828Zm-2.536,4.826h-1.255v-4.723h1.255a2.272,2.272,0,0,1,.917.174,1.928,1.928,0,0,1,.672.477,2.01,2.01,0,0,1,.415.734,3.1,3.1,0,0,1,.144.967,3.069,3.069,0,0,1-.144.958,2.189,2.189,0,0,1-.409.747,1.829,1.829,0,0,1-.665.487A2.276,2.276,0,0,1,998.242,1378.654Z" transform="translate(-935.313 -1352.948)" fill="#fff"/>
      <path id="Path_13" data-name="Path 13" d="M1110.96,1379.852h1.229v-6.985h-1.229Z" transform="translate(-1035.469 -1353.01)" fill="#fff"/>
      <path id="Path_14" data-name="Path 14" d="M1190.419,1372.8l-2.877,6.994h1.318l.772-1.934h2.506l.781,1.934h1.317l-2.866-6.994Zm1.379,4.017h-1.841l.935-2.322Z" transform="translate(-1102.048 -1352.948)" fill="#fff"/>
      <path id="Path_15" data-name="Path 15" d="M1282.722,1393.595H1306.8v-.949h-24.075Z" transform="translate(-1184.797 -1370.206)" fill="#fff"/>
      <path id="Path_16" data-name="Path 16" d="M532.94,1393.595h24.075v-.949H532.94Z" transform="translate(-532.94 -1370.206)" fill="#fff"/>
      <path id="Path_17" data-name="Path 17" d="M648.058,1229.231v.069h0v1.505q0,2.181,0,4.362a.673.673,0,0,0,.748.743h5.044a.674.674,0,0,0,.755-.751v-.175c0-1.717,0-3.492,0-5.238a2.387,2.387,0,0,1,.128-.789c.2-.588.4-1.188.593-1.767q.218-.654.437-1.308a.716.716,0,0,0-.114-.7c-.482-.639-1.116-1.48-1.742-2.323a.731.731,0,0,0-.623-.312h-4.5a.679.679,0,0,0-.724.752q0,2.186,0,4.371Zm5.2.671v4.662h-3.849V1229.9Zm-.72-6.031a.8.8,0,0,1,.793.434,3.846,3.846,0,0,0,.364.509l.109.137h-1.531l-1.338,0a.152.152,0,0,1-.1-.043c-.214-.277-.425-.558-.648-.856l-.126-.168h.142c.329,0,.575,0,.791,0,.171,0,.323,0,.484,0,.3,0,.6-.005.99-.018Zm-2.608,4.691h-.119l.015-.032.278-.557c.255-.51.518-1.036.772-1.557a.192.192,0,0,1,.209-.135c.653,0,1.084,0,1.525,0h1.6c-.01.037-.019.067-.029.1l-.193.577c-.163.489-.332.994-.493,1.493-.031.1-.059.116-.16.116-1,0-1.479,0-2.276-.005h-1.131Zm-.534-2.169v-1.171l.019.025c.1.138.213.281.317.424l.006.034c-.111.227-.228.46-.341.685Z" transform="translate(-633.023 -1222.319)" fill="#fff"/>
    </g>
  </g>
</svg>
