<svg xmlns="http://www.w3.org/2000/svg" width="226" height="61.934" viewBox="0 0 226 61.934">
  <g id="Group_177" data-name="Group 177" transform="translate(-140 -47)">
    <g id="Group_1" data-name="Group 1" transform="translate(140 47)">
      <path id="Path_1" data-name="Path 1" d="M788.5,606.219c0-10.079,6.99-19.886,5.69-15.931A21.194,21.194,0,0,0,795.059,604c.325-9.049,9.97-13.872,6.99-22.948,3.712,1.111,5.039,5.066,5.039,5.066,3.414-8.832-6.448-12.463-6.448-12.463,11.867,0,21.484,9.1,21.484,16.8,0,5.69-3.5,11.236.2,11.236,3.373,0,3.806-2.8,3.806-5.32a7.427,7.427,0,0,0-.65-3.586s6.99,7.153,6.99,16.825c0,8.564-6.534,16.951-17.509,18.762,1.77-5.969,7.363-7.118,7.363-14.257a11.843,11.843,0,1,0-23.681,0c0,7.093,5.521,8.275,7.328,14.145C795.022,625.889,788.5,615.134,788.5,606.219Z" transform="translate(-788.503 -573.653)" fill="#fc2b39"/>
      <path id="Path_2" data-name="Path 2" d="M1009.552,888.126a8.9,8.9,0,0,0-2.973-6.512,8.616,8.616,0,0,0-6.579-2.177,9.942,9.942,0,0,1,5.834,2.951,8.643,8.643,0,0,1,2.344,5.786,7.876,7.876,0,0,1-.458,3.1,10.873,10.873,0,0,1-1.676,2.763c-.345.448-.713.9-1.057,1.369-.166.245-.339.481-.5.731s-.319.5-.449.767a8.07,8.07,0,0,0-.929,3.371,10.019,10.019,0,0,1,1.5-3.017,27.013,27.013,0,0,1,2.247-2.529,10.188,10.188,0,0,0,2.068-2.967,5.834,5.834,0,0,0,.313-.883,6.2,6.2,0,0,0,.2-.912,5.519,5.519,0,0,0,.1-.921l.026-.461C1009.573,888.431,1009.556,888.279,1009.552,888.126Z" transform="translate(-978.014 -847.605)" fill="#fc2b39"/>
      <path id="Path_3" data-name="Path 3" d="M960.113,1122.5a4.147,4.147,0,0,0,4.146,4.146h0a4.147,4.147,0,0,0,4.146-4.146v-.816h-8.293Z" transform="translate(-942.273 -1064.715)" fill="#fc2b39"/>
    </g>
    <g id="Group_2" data-name="Group 2" transform="translate(201.203 60.508)">
      <path id="Path_4" data-name="Path 4" d="M545.884,1239.952v-3.022H536.29v-15.387h-3.35v18.409h12.945Z" transform="translate(-532.94 -1221.417)" fill="#fff"/>
      <path id="Path_5" data-name="Path 5" d="M745.163,1232.413h3.752v1.527a7.542,7.542,0,0,1-2.166,1.848,5.079,5.079,0,0,1-2.455.629,4.674,4.674,0,0,1-2.123-.488h0a5.541,5.541,0,0,1-1.719-1.335h0a6.17,6.17,0,0,1-1.147-1.981,7.149,7.149,0,0,1-.412-2.453,7.558,7.558,0,0,1,.377-2.385,6.307,6.307,0,0,1,1.063-1.995,5.322,5.322,0,0,1,1.644-1.368,4.392,4.392,0,0,1,2.116-.51,5.094,5.094,0,0,1,2.624.694h0a4.836,4.836,0,0,1,1.874,2.081l.139.278,2.6-1.875-.1-.2a7.235,7.235,0,0,0-2.69-2.939,8.828,8.828,0,0,0-7.832-.368l-.12.056.12-.056a8.555,8.555,0,0,0-2.741,2.013,9.511,9.511,0,0,0-1.813,2.952,9.753,9.753,0,0,0,0,7.055,9.953,9.953,0,0,0,1.811,3h0a8.982,8.982,0,0,0,2.724,2.1h0a7.407,7.407,0,0,0,3.38.8,6.764,6.764,0,0,0,2.849-.609,7.552,7.552,0,0,0,2-1.362v1.845h2.9v-9.57h-6.649Z" transform="translate(-699.759 -1220.829)" fill="#fff"/>
      <path id="Path_6" data-name="Path 6" d="M898.208,1221.543v7.479h-8.486v-7.479h-3.35v18.409h3.35v-7.882h8.486v7.882h3.375v-18.409h-3.375Z" transform="translate(-824.02 -1221.417)" fill="#fff"/>
      <path id="Path_7" data-name="Path 7" d="M1041.38,1224.3v-2.758h-15.261v3.022h5.969v15.387h3.349v-15.387h5.943Z" transform="translate(-939.112 -1221.417)" fill="#fff"/>
      <path id="Path_8" data-name="Path 8" d="M1250.29,1239.347a6.76,6.76,0,0,0,2.5-2,8.272,8.272,0,0,0,1.405-2.939,13.815,13.815,0,0,0,.437-3.53v-9.331h-3.375v9.331a11.252,11.252,0,0,1-.234,2.3,5.838,5.838,0,0,1-.771,1.952,4.154,4.154,0,0,1-1.41,1.363,4.264,4.264,0,0,1-2.207.517,4.354,4.354,0,0,1-2.2-.506,4.007,4.007,0,0,1-1.419-1.348,5.826,5.826,0,0,1-.77-1.952,11.308,11.308,0,0,1-.234-2.326v-9.331h-3.349v9.331a14.021,14.021,0,0,0,.411,3.414,8.429,8.429,0,0,0,1.352,2.95,6.772,6.772,0,0,0,2.475,2.07,8.222,8.222,0,0,0,3.732.771A8.4,8.4,0,0,0,1250.29,1239.347Z" transform="translate(-1114.163 -1221.417)" fill="#fff"/>
      <path id="Path_9" data-name="Path 9" d="M1393.469,1239.952v-6.22h4.571a5.181,5.181,0,0,0,2.32-.518,5.6,5.6,0,0,0,1.783-1.374,6.476,6.476,0,0,0,1.55-4.215,5.978,5.978,0,0,0-.434-2.225,6.511,6.511,0,0,0-1.194-1.942,5.982,5.982,0,0,0-1.831-1.383,5.238,5.238,0,0,0-2.346-.531h-7.769v18.409h3.35Zm6.037-14.554h0a2.935,2.935,0,0,1,.577.96,3.584,3.584,0,0,1,.21,1.267,3.94,3.94,0,0,1-.188,1.251,3.255,3.255,0,0,1-.512.979,2.252,2.252,0,0,1-.755.632,2.1,2.1,0,0,1-.975.223h-4.394v-6.144h4.243a2.257,2.257,0,0,1,.959.215h0A2.632,2.632,0,0,1,1399.506,1225.4Z" transform="translate(-1238.896 -1221.417)" fill="#fff"/>
      <path id="Path_10" data-name="Path 10" d="M766.627,1378.309l-3.073-5.513h-1.613v9.448h1.66v-6.151l2.557,4.543h.95l2.545-4.54v6.147h1.66V1372.8h-1.6Z" transform="translate(-721.541 -1345.986)" fill="#fff"/>
      <path id="Path_11" data-name="Path 11" d="M889.91,1380.71v-2.548h4.183v-1.471H889.91v-2.36h4.811V1372.8h-6.47v9.448h6.584v-1.534H889.91Z" transform="translate(-825.567 -1345.986)" fill="#fff"/>
      <path id="Path_12" data-name="Path 12" d="M1002.539,1374.19a4.1,4.1,0,0,0-1.442-1.021,4.95,4.95,0,0,0-1.984-.374h-3.354v9.447h3.354a5,5,0,0,0,1.876-.339,4.152,4.152,0,0,0,1.454-.966,4.2,4.2,0,0,0,.925-1.5,5.577,5.577,0,0,0,.318-1.931,5.688,5.688,0,0,0-.284-1.81A4.24,4.24,0,0,0,1002.539,1374.19Zm-3.425,6.519h-1.695v-6.38h1.695a3.072,3.072,0,0,1,1.238.236,2.606,2.606,0,0,1,.908.644,2.715,2.715,0,0,1,.561.992,4.187,4.187,0,0,1,.194,1.306,4.142,4.142,0,0,1-.194,1.293,2.956,2.956,0,0,1-.553,1.01,2.47,2.47,0,0,1-.9.658A3.074,3.074,0,0,1,999.113,1380.709Z" transform="translate(-914.108 -1345.986)" fill="#fff"/>
      <path id="Path_13" data-name="Path 13" d="M1110.96,1382.3h1.659v-9.435h-1.659Z" transform="translate(-1008.986 -1346.044)" fill="#fff"/>
      <path id="Path_14" data-name="Path 14" d="M1191.428,1372.8l-3.886,9.447h1.78l1.043-2.613h3.386l1.054,2.613h1.779l-3.872-9.447Zm1.862,5.426H1190.8l1.262-3.137Z" transform="translate(-1072.057 -1345.986)" fill="#fff"/>
      <path id="Path_15" data-name="Path 15" d="M1282.722,1393.928h32.521v-1.282h-32.521Z" transform="translate(-1150.446 -1362.334)" fill="#fff"/>
      <path id="Path_16" data-name="Path 16" d="M532.94,1393.928h32.521v-1.282H532.94Z" transform="translate(-532.94 -1362.334)" fill="#fff"/>
      <path id="Path_17" data-name="Path 17" d="M648.058,1231.578v.094h0v2.033q0,2.946,0,5.892a.909.909,0,0,0,1.011,1h6.814a.91.91,0,0,0,1.02-1.015v-.236c0-2.319,0-4.717,0-7.075a3.225,3.225,0,0,1,.172-1.066c.271-.794.541-1.6.8-2.387q.294-.884.591-1.767a.967.967,0,0,0-.154-.95c-.651-.863-1.507-2-2.353-3.137a.987.987,0,0,0-.841-.421h-6.083a.917.917,0,0,0-.978,1.016q0,2.952,0,5.9Zm7.027.906v6.3h-5.2v-6.3Zm-.973-8.147a1.075,1.075,0,0,1,1.071.586,5.194,5.194,0,0,0,.491.687c.049.061.1.123.147.185h-2.068l-1.807,0a.2.2,0,0,1-.133-.058c-.289-.375-.574-.754-.875-1.157l-.17-.227h.191c.444,0,.777,0,1.069.006.231,0,.437,0,.653,0,.409,0,.809-.007,1.337-.025Zm-3.523,6.337h-.161l.021-.043.375-.752c.344-.688.7-1.4,1.043-2.1a.259.259,0,0,1,.283-.182c.882,0,1.465.006,2.061.006h2.163c-.014.05-.026.091-.039.131q-.129.39-.26.779c-.221.66-.449,1.342-.666,2.016-.042.129-.08.157-.216.157-1.348-.006-2-.007-3.075-.007h-1.527Zm-.721-2.929v-1.581l.026.034c.142.187.288.38.428.573l.008.046c-.15.307-.308.621-.46.925Z" transform="translate(-627.749 -1222.241)" fill="#fff"/>
    </g>
  </g>
</svg>
