<svg xmlns="http://www.w3.org/2000/svg" width="85" height="85" viewBox="0 0 85 85">
  <g id="Group_178" data-name="Group 178" transform="translate(-140 -1399)">
    <rect id="Rectangle_323" data-name="Rectangle 323" width="85" height="85" rx="22" transform="translate(140 1399)" fill="#fff0e9" opacity="0.08"/>
    <g id="Group_6" data-name="Group 6" transform="translate(163 1418)">
      <path id="Path_18" data-name="Path 18" d="M44.217,16.8H15.077L42.543,9.436a2.132,2.132,0,0,0,1.505-2.608L42.769,2.055a1.445,1.445,0,0,0-1.743-1.006L8.3,9.818A1.423,1.423,0,0,0,7.29,11.561l1.68,6.27a1.4,1.4,0,0,0-.06.387v27.3a2.838,2.838,0,0,0,2.835,2.835H42.806a2.838,2.838,0,0,0,2.835-2.835v-27.3A1.425,1.425,0,0,0,44.217,16.8ZM17.31,23.854l-2.45-5.626,4.421,0,2.451,5.627H17.31Zm5.986,0-2.451-5.628h4.42l2.452,5.629Zm5.987,0-2.452-5.63h4.42L33.7,23.854Zm5.986,0-2.453-5.632,4.42,0,2.454,5.633Zm.845-14.182-4.271,1.144.912-6.076,4.271-1.146Zm-5.782,1.549-4.271,1.144.912-6.074,4.271-1.146Zm-5.782,1.549-4.271,1.144.911-6.072L25.461,6.7Zm-5.782,1.549L14.5,15.465,15.407,9.4,19.678,8.25ZM41.383,2.426,42.662,7.2a.7.7,0,0,1-.491.851L37.626,9.268l.912-6.078ZM13.895,9.8l-.911,6.069-2.851.764L8.668,11.2ZM10.333,18.23h2.961l2.45,5.625h-5.4ZM44.206,45.52a1.4,1.4,0,0,1-1.4,1.4H11.745a1.4,1.4,0,0,1-1.4-1.4V25.289H44.206V45.52Zm-2.95-21.666L38.8,18.22l5.4,0v5.636Z" transform="translate(-7.241 -1.002)" fill="#ff8345"/>
      <path id="Path_19" data-name="Path 19" d="M32.338,54.275A7.175,7.175,0,1,0,25.163,47.1,7.183,7.183,0,0,0,32.338,54.275Zm0-12.915A5.74,5.74,0,1,1,26.6,47.1,5.747,5.747,0,0,1,32.338,41.36Z" transform="translate(-12.304 -11.997)" fill="#ff8345"/>
      <path id="Path_20" data-name="Path 20" d="M27.751,50.466a1.425,1.425,0,0,0,.678-.173l4-2.154a1.433,1.433,0,0,0,0-2.521l-4-2.151a1.428,1.428,0,0,0-2.113,1.259v4.306A1.435,1.435,0,0,0,27.751,50.466Zm4-3.59-3.993,2.15-.006-4.3Zm-16.892-4.15a.718.718,0,0,0,.718-.718V39.857a.718.718,0,1,0-1.435,0v2.153A.718.718,0,0,0,14.855,42.727Zm0,5.767a.718.718,0,0,0,.718-.718v-2.87a.718.718,0,0,0-1.435,0v2.87A.718.718,0,0,0,14.855,48.494Z" transform="translate(-9.189 -11.775)" fill="#ff8345"/>
    </g>
  </g>
</svg>
